<svg xmlns="http://www.w3.org/2000/svg" width="42.661" height="29.566" viewBox="0 0 42.661 29.566"><g transform="translate(-702 -195.5)"><path d="M10.016,0A10.016,10.016,0,0,1,20.033,10.016c0,4.5-7.457,18.188-11.884,19.547-.6.191,2.9-9.531,1.867-9.531A10.016,10.016,0,0,1,10.016,0Z" transform="translate(702 195.5)" fill="#fff"/><path d="M10.016,0A10.016,10.016,0,0,1,20.033,10.016c0,4.5-7.457,18.188-11.884,19.547-.6.191,2.9-9.531,1.867-9.531A10.016,10.016,0,0,1,10.016,0Z" transform="translate(724.628 195.5)" fill="#fff"/></g></svg>