<svg xmlns="http://www.w3.org/2000/svg" width="32.254" height="27.216" viewBox="0 0 32.254 27.216"><path d="M8.795,2.47a.756.756,0,0,0-1.071,0L3.712,6.459,2.282,5.065a.756.756,0,0,0-1.071,0l-.989.99a.756.756,0,0,0,0,1.071l3,2.986a.805.805,0,0,0,1.109,0l.982-.984L9.86,4.581A.762.762,0,0,0,9.866,3.51Zm0,10.028a.756.756,0,0,0-1.071,0L3.712,16.513l-1.43-1.392a.756.756,0,0,0-1.071,0l-.989.988a.756.756,0,0,0,0,1.071l2.99,2.992a.8.8,0,0,0,1.109,0l.989-.988,4.548-4.55a.756.756,0,0,0,.006-1.065ZM4.032,23.417a3.024,3.024,0,1,0,0,6.048,3.024,3.024,0,1,0,0-6.048Zm27.214,1.008H13.1A1.008,1.008,0,0,0,12.1,25.432v2.016A1.008,1.008,0,0,0,13.1,28.456H31.246a1.008,1.008,0,0,0,1.008-1.008V25.432A1.008,1.008,0,0,0,31.246,24.424Zm0-20.159H13.1A1.008,1.008,0,0,0,12.1,5.274V7.289A1.008,1.008,0,0,0,13.1,8.3H31.246a1.008,1.008,0,0,0,1.008-1.008V5.274A1.008,1.008,0,0,0,31.246,4.266Zm0,10.079H13.1A1.008,1.008,0,0,0,12.1,15.353v2.016A1.008,1.008,0,0,0,13.1,18.377H31.246a1.008,1.008,0,0,0,1.008-1.008V15.353A1.008,1.008,0,0,0,31.246,14.345Z" transform="translate(0 -2.248)" fill="#949494"/></svg>