<svg xmlns="http://www.w3.org/2000/svg" width="24.165" height="19.466" viewBox="0 0 24.165 19.466"><path d="M2.265,3.375A2.246,2.246,0,1,0,4.531,5.621,2.256,2.256,0,0,0,2.265,3.375Zm0,7.487a2.246,2.246,0,1,0,2.265,2.246A2.256,2.256,0,0,0,2.265,10.862Zm0,7.487A2.246,2.246,0,1,0,4.531,20.6,2.256,2.256,0,0,0,2.265,18.349ZM23.41,19.1H8.307a.752.752,0,0,0-.755.749v1.5a.752.752,0,0,0,.755.749h15.1a.752.752,0,0,0,.755-.749v-1.5A.752.752,0,0,0,23.41,19.1Zm0-14.974H8.307a.752.752,0,0,0-.755.749v1.5a.752.752,0,0,0,.755.749h15.1a.752.752,0,0,0,.755-.749v-1.5A.752.752,0,0,0,23.41,4.124Zm0,7.487H8.307a.752.752,0,0,0-.755.749v1.5a.752.752,0,0,0,.755.749h15.1a.752.752,0,0,0,.755-.749v-1.5A.752.752,0,0,0,23.41,11.611Z" transform="translate(0 -3.375)" fill="#949494"/></svg>