<svg id="icon_edit" xmlns="http://www.w3.org/2000/svg" width="24.106" height="21.423" viewBox="0 0 24.106 21.423">
  <path id="Icon_awesome-edit" data-name="Icon awesome-edit" d="M16.849,3.485,20.624,7.26a.409.409,0,0,1,0,.578l-9.14,9.14L7.6,17.409a.814.814,0,0,1-.9-.9l.431-3.884,9.14-9.14A.409.409,0,0,1,16.849,3.485Zm6.78-.958L21.587.484a1.637,1.637,0,0,0-2.31,0L17.795,1.966a.409.409,0,0,0,0,.578L21.57,6.318a.409.409,0,0,0,.578,0l1.482-1.482a1.637,1.637,0,0,0,0-2.31ZM16.071,14.492v4.26H2.678V5.36H12.3a.515.515,0,0,0,.356-.146l1.674-1.674a.5.5,0,0,0-.356-.858H2.009A2.009,2.009,0,0,0,0,4.69V19.422A2.009,2.009,0,0,0,2.009,21.43H16.74a2.009,2.009,0,0,0,2.009-2.009v-6.6a.5.5,0,0,0-.858-.356l-1.674,1.674A.515.515,0,0,0,16.071,14.492Z" transform="translate(0 -0.007)" fill="#fff"/>
</svg>
